<svg aria-hidden="true" style="position: absolute; width: 0; height: 0; overflow: hidden;" version="1.1" xmlns="http://www.w3.org/2000/svg" xmlns:xlink="http://www.w3.org/1999/xlink">
<defs>
<symbol id="icon-githubsvg" viewBox="0 0 32 32">
<path d="M15.267 0.017c-2.186 0.1-4.32 0.644-6.275 1.598-2.78 1.359-5.1 3.481-6.698 6.127-1.714 2.841-2.498 6.147-2.247 9.484 0.4 5.311 3.433 10.072 8.094 12.708 0.766 0.433 1.748 0.878 2.553 1.159 0.275 0.095 0.389 0.116 0.58 0.105 0.347-0.022 0.584-0.178 0.706-0.466 0.042-0.098 0.044-0.103 0.048-0.522 0.003-0.233 0.002-0.95-0.005-1.595l-0.011-1.173-0.206 0.036c-0.583 0.098-1.031 0.137-1.58 0.137-0.494-0.002-0.78-0.025-1.148-0.1-0.823-0.166-1.408-0.477-1.88-0.998-0.194-0.214-0.417-0.581-0.519-0.853-0.147-0.386-0.472-0.978-0.783-1.425-0.281-0.403-0.609-0.756-0.834-0.895-0.319-0.198-0.455-0.297-0.589-0.43-0.339-0.334-0.295-0.55 0.13-0.642 0.191-0.041 0.592-0.038 0.798 0.006 0.537 0.116 0.997 0.392 1.481 0.895 0.223 0.231 0.342 0.384 0.583 0.748 0.313 0.475 0.53 0.734 0.817 0.977 0.461 0.386 1.002 0.622 1.6 0.695 0.203 0.025 0.655 0.022 0.875-0.008 0.4-0.053 0.797-0.161 1.192-0.322 0.147-0.061 0.159-0.070 0.159-0.12 0-0.091 0.102-0.527 0.173-0.747 0.089-0.27 0.248-0.606 0.384-0.811 0.122-0.183 0.167-0.239 0.319-0.394l0.125-0.128-0.052-0.008c-0.028-0.005-0.164-0.023-0.302-0.042-1.73-0.225-3.080-0.68-4.127-1.391-0.547-0.372-1.098-0.911-1.467-1.438-0.903-1.286-1.352-3.033-1.316-5.119 0.011-0.639 0.053-0.983 0.183-1.512 0.237-0.97 0.666-1.778 1.394-2.638l0.050-0.058-0.058-0.169c-0.398-1.18-0.334-2.619 0.177-3.952l0.048-0.128 0.105-0.013c0.058-0.006 0.191-0.011 0.294-0.009 0.933 0.011 2.295 0.558 3.73 1.494 0.211 0.137 0.27 0.169 0.305 0.162 0.023-0.003 0.183-0.042 0.355-0.086 1.97-0.502 4.205-0.575 6.277-0.205 0.342 0.061 0.622 0.122 1.014 0.22l0.323 0.081 0.267-0.177c1.247-0.814 2.392-1.32 3.316-1.464 0.195-0.031 0.648-0.037 0.755-0.013l0.061 0.014 0.077 0.211c0.181 0.491 0.313 1.045 0.375 1.586 0.027 0.231 0.027 0.995 0 1.219-0.047 0.384-0.12 0.717-0.225 1.036-0.056 0.17-0.061 0.194-0.041 0.219 0.012 0.014 0.070 0.081 0.128 0.148 0.056 0.067 0.173 0.214 0.258 0.328 0.675 0.908 1.052 1.873 1.192 3.066 0.033 0.272 0.027 1.45-0.008 1.836-0.080 0.866-0.216 1.553-0.439 2.227-0.741 2.217-2.339 3.602-4.892 4.233-0.486 0.12-1.036 0.222-1.563 0.291-0.137 0.017-0.273 0.036-0.302 0.041l-0.052 0.008 0.155 0.161c0.428 0.445 0.741 1.153 0.853 1.931 0.059 0.409 0.061 0.52 0.052 2.966-0.006 2.005-0.005 2.395 0.014 2.484 0.061 0.297 0.258 0.5 0.553 0.575 0.078 0.020 0.145 0.023 0.297 0.017 0.17-0.006 0.216-0.016 0.352-0.063 1.022-0.355 2.064-0.842 2.992-1.398 3.295-1.977 5.8-5.117 6.989-8.761 0.423-1.294 0.664-2.569 0.764-4.023 0.025-0.369 0.025-1.563 0-1.922-0.155-2.206-0.664-4.148-1.58-6.023-1.184-2.423-2.911-4.466-5.098-6.033-1.47-1.053-3.153-1.864-4.903-2.364-1.631-0.466-3.411-0.672-5.123-0.594z"></path>
</symbol>
</defs>
</svg>
